<svg xmlns="http://www.w3.org/2000/svg" width="175.287" height="63.706" viewBox="0 0 175.287 63.706">
    <defs>
        <style>
            .cls-1{fill:#fff}.cls-2{fill:#23e197}
        </style>
    </defs>
    <g id="Logo" transform="translate(0 -.181)">
        <path id="Shape" d="M53.552 19.494v-6.83h-6.807V0l-8.187 2.714v9.928h-11.94l-6.83 21.914a10.991 10.991 0 0 1-6.468-6.966h-.02L8.639 12.642H0l5.428 17.391A19.246 19.246 0 0 0 17.3 42.425l-.226.7a11.326 11.326 0 0 1-2.736 4.523 10.936 10.936 0 0 1-7.78 3.211v8.232a19.243 19.243 0 0 0 18.364-13.522l8.141-26.075h5.45v5.337a19.127 19.127 0 0 0 14.948 18.748v-8.616a11.376 11.376 0 0 1-3.551-2.375 10.973 10.973 0 0 1-3.211-7.78v-5.337h6.852z" class="cls-1" transform="translate(56.379 4.794)"/>
        <path id="Shape-2" d="M3.709 25.917l4.478-4.478V0L0 2.714v28.133a21.525 21.525 0 0 1 3.709-4.93z" class="cls-2" data-name="Shape" transform="translate(.023 .181)"/>
        <path id="Shape-3" d="M20.2 30.937h10.511L17.459 10.358 27.816 0H16.237L5.654 10.584A19.213 19.213 0 0 0 0 24.2v6.739h8.187v-6.92a10.866 10.866 0 0 1 2.827-7.192z" class="cls-1" data-name="Shape" transform="translate(0 17.436)"/>
        <path id="Shape-4" d="M15.785 31.57A15.791 15.791 0 0 1 4.619 4.619 15.685 15.685 0 0 1 15.785 0 14.367 14.367 0 0 1 26.5 4.628a16.366 16.366 0 0 1 4.167 11.158 19.116 19.116 0 0 1-.181 2.555v.046H8.277a7.59 7.59 0 0 0 7.508 6.151 12.446 12.446 0 0 0 8.074-2.984L27.048 28a19.456 19.456 0 0 1-11.263 3.57zm0-24.492a7.469 7.469 0 0 0-7.237 5.247H23a7.416 7.416 0 0 0-7.215-5.247z" class="cls-1" data-name="Shape" transform="translate(144.622 17.119)"/>
        <path id="Shape-5" d="M15.77 31.543c-.185 0-.36 0-.52-.009A15.82 15.82 0 0 1 .008 16.291 15.767 15.767 0 0 1 15.772 0c.174 0 .344 0 .519.008A15.787 15.787 0 0 1 31.533 15.25a15.765 15.765 0 0 1-15.761 16.292zm.02-24.066c-.179 0-.36.006-.54.017a8.319 8.319 0 0 0-7.734 7.734 8.273 8.273 0 0 0 8.257 8.815c.179 0 .36-.006.54-.017a8.288 8.288 0 0 0 5.513-13.937 8.2 8.2 0 0 0-6.035-2.612z" class="cls-1" data-name="Shape" transform="translate(111.279 17.134)"/>
        <path id="Shape-6" d="M15.763 31.57A15.8 15.8 0 0 1 4.608 4.619 15.651 15.651 0 0 1 15.763 0a14.367 14.367 0 0 1 10.713 4.628 16.366 16.366 0 0 1 4.167 11.158 19.116 19.116 0 0 1-.181 2.555h-.456c-1.879 0-5.441 0-5.47.023H8.255a7.59 7.59 0 0 0 7.508 6.151 12.44 12.44 0 0 0 8.073-2.985l3.189 6.446a19.365 19.365 0 0 1-11.262 3.594zm0-24.514A7.469 7.469 0 0 0 8.526 12.3h14.451a7.416 7.416 0 0 0-7.214-5.244z" class="cls-1" data-name="Shape" transform="translate(26.912 17.142)"/>
    </g>
</svg>
